<?xml version="1.0" encoding="utf-8"?>
<!-- Generator: Adobe Illustrator 19.0.0, SVG Export Plug-In . SVG Version: 6.00 Build 0)  -->
<svg version="1.1" id="Ebene_1" xmlns="http://www.w3.org/2000/svg" xmlns:xlink="http://www.w3.org/1999/xlink" x="0px" y="0px"
	 viewBox="846 -846 1792 1792" style="enable-background:new 846 -846 1792 1792;" xml:space="preserve">
<style type="text/css">
	.st0{opacity:0.8;fill:#FFFFFF;}
</style>
<path class="st0" d="M1797-494V594c0,17.3-6.3,32.3-19,45s-27.7,19-45,19s-32.3-6.3-45-19l-333-333h-262c-17.3,0-32.3-6.3-45-19
	s-19-27.7-19-45v-384c0-17.3,6.3-32.3,19-45s27.7-19,45-19h262l333-333c12.7-12.7,27.7-19,45-19s32.3,6.3,45,19S1797-511.3,1797-494
	z M2181,50c0,50.7-14.2,97.8-42.5,141.5s-65.8,74.8-112.5,93.5c-6.7,3.3-15,5-25,5c-17.3,0-32.3-6.2-45-18.5s-19-27.5-19-45.5
	c0-14,4-25.8,12-35.5s17.7-18,29-25s22.7-14.7,34-23s21-20.2,29-35.5s12-34.3,12-57s-4-41.7-12-57s-17.7-27.2-29-35.5
	s-22.7-16-34-23s-21-15.3-29-25s-12-21.5-12-35.5c0-18,6.3-33.2,19-45.5s27.7-18.5,45-18.5c10,0,18.3,1.7,25,5
	c46.7,18,84.2,49,112.5,93S2181-0.7,2181,50z M2437,50c0,102-28.3,196.2-85,282.5c-56.7,86.3-131.7,149.2-225,188.5
	c-8.7,3.3-17,5-25,5c-18,0-33.3-6.3-46-19s-19-27.7-19-45c0-26,13-45.7,39-59c37.3-19.3,62.7-34,76-44
	c49.3-36,87.8-81.2,115.5-135.5S2309,111.3,2309,50s-13.8-119.2-41.5-173.5S2201.3-223,2152-259c-13.3-10-38.7-24.7-76-44
	c-26-13.3-39-33-39-59c0-17.3,6.3-32.3,19-45s27.7-19,45-19c8.7,0,17.3,1.7,26,5c93.3,39.3,168.3,102.2,225,188.5
	C2408.7-146.2,2437-52,2437,50z"/>
</svg>
